<svg xmlns="http://www.w3.org/2000/svg" xmlns:xlink="http://www.w3.org/1999/xlink" version="1.1" id="Layer_1" x="0px" y="0px" width="100%" viewBox="0 0 124 129" enable-background="new 0 0 124 129" xml:space="preserve">
<path fill="#f8fbfd" opacity="0.000000" stroke="none" d=" M65.000000,130.000000   C43.705132,130.000000 22.410265,130.000000 1.057699,130.000000   C1.057699,87.116066 1.057699,44.232033 1.057699,1.000000   C17.352583,1.000000 33.707634,1.000000 50.379337,1.345013   C44.903275,3.704502 38.899384,5.263025 33.361561,7.827852   C21.634321,13.259290 14.074726,27.602955 15.616592,40.385139   C17.536278,56.299480 30.326992,68.173820 47.185043,70.059525   C56.413483,71.091805 65.828949,71.709595 74.725464,74.119057   C84.818832,76.852661 87.098801,88.743279 79.390594,95.921013   C76.825943,98.309181 73.246841,100.638176 69.924072,100.980446   C61.426212,101.855789 52.811844,101.604836 44.243744,101.789223   C42.549854,101.825684 40.854504,101.794479 39.159828,101.794479   C39.116142,102.328659 39.072453,102.862839 39.028767,103.397018   C39.969856,103.912460 40.890469,104.830765 41.855263,104.879807   C49.805538,105.283920 57.862652,106.399467 65.685753,105.515335   C71.009247,104.913696 76.745888,102.389923 81.006760,99.069153   C91.414299,90.957886 88.740234,75.798515 76.527969,70.945518   C74.081703,69.973404 71.453705,69.273232 68.845863,68.927231   C60.440109,67.811958 51.895367,67.474190 43.601547,65.836990   C20.677732,61.311836 11.403031,35.717133 25.992676,17.908663   C31.590464,11.075871 38.946457,6.770466 47.461796,5.156584   C54.261967,3.867772 61.318081,3.973576 68.230225,3.191818   C69.519173,3.046038 72.816078,5.159410 72.000000,1.000000   C89.633858,1.000000 107.267708,1.000000 124.950783,1.000000   C124.950783,43.887283 124.950783,86.774635 124.950783,130.000000   C107.313873,130.000000 89.625595,130.000000 71.660217,129.659134   C71.871056,129.228348 72.357353,129.127991 72.847198,129.050003   C91.934311,126.011482 105.643272,116.254028 112.017868,97.489540   C112.454918,96.203041 111.904297,94.581017 111.813011,93.115036   C110.819511,94.137413 109.538071,95.004471 108.887009,96.211540   C107.005005,99.700813 105.727875,103.554504 103.586403,106.858879   C95.462807,119.393898 83.458733,125.655098 68.933998,127.737335   C67.543129,127.936722 66.307625,129.219925 65.000000,130.000000  M108.961983,22.872000   C109.226112,22.836428 109.490234,22.800856 109.754364,22.765282   C109.558907,22.456600 109.363441,22.147917 108.929497,21.203739   C105.235420,18.810022 101.802383,15.744054 97.784615,14.183968   C92.102592,11.977658 86.061966,10.471725 80.043907,9.401456   C68.316422,7.315809 56.525875,7.026484 45.046814,10.947788   C34.245605,14.637536 26.765032,21.697561 24.369797,33.169151   C23.841879,35.697525 24.598751,38.494156 24.763996,41.167259   C25.481552,41.170074 26.199108,41.172894 26.916664,41.175713   C27.230679,39.573959 27.406872,37.929672 27.885517,36.378731   C29.135313,32.329041 29.829241,27.895706 31.994059,24.385862   C36.150364,17.647202 43.135372,14.457005 50.643456,13.046499   C71.023949,9.217724 90.243370,13.152507 108.961983,22.872000  M9.318137,28.218657   C4.819877,32.900604 5.100694,38.619934 6.512363,44.160721   C11.338970,63.105125 24.488472,73.616852 42.807755,77.864708   C50.679749,79.690056 58.946430,79.816635 67.035210,80.702087   C70.240814,81.052994 73.753220,82.249992 73.357475,85.656731   C73.064156,88.181778 70.506836,91.725494 68.201897,92.467941   C63.427628,94.005798 58.035583,94.981216 53.099571,94.417892   C35.350716,92.392281 20.184267,84.470200 7.127821,72.381699   C6.106036,71.435654 4.960467,70.623322 3.872429,69.748840   C3.370290,70.140892 2.868151,70.532936 2.366012,70.924988   C3.566138,72.712532 4.458290,74.846107 6.015688,76.232246   C17.277485,86.255638 30.283070,93.161278 44.963280,96.541862   C53.128780,98.422226 61.494877,98.743591 69.602089,95.866074   C76.255997,93.504379 79.015793,87.429169 75.962578,82.090675   C73.592491,77.946625 69.377403,77.388405 65.187744,76.966194   C58.250168,76.267059 51.075867,76.515083 44.410637,74.786087   C26.563517,70.156441 12.751586,60.649620 9.590012,40.851360   C8.928026,36.705910 9.837056,32.309578 10.520066,28.207146   C10.470349,27.922424 10.420632,27.637705 10.370915,27.352983   C10.246031,27.567255 10.121146,27.781525 9.318137,28.218657  M100.693039,92.854012   C98.076622,101.709129 92.518196,108.318916 85.093056,113.581772   C84.071526,114.305817 83.541023,115.722633 82.783203,116.818718   C84.222183,116.714424 86.106293,117.155975 87.021599,116.409538   C90.615990,113.478325 94.342049,110.526031 97.235069,106.947609   C113.252182,87.135735 104.294739,60.119835 79.596870,53.845036   C74.498016,52.549610 69.062050,52.625183 63.806000,51.892796   C57.741604,51.047779 51.436729,50.802666 45.714737,48.876045   C35.801899,45.538345 33.927025,33.551067 42.129368,26.978144   C45.113308,24.586971 49.154713,23.440966 52.821537,22.001720   C55.409676,20.985867 58.179569,20.433094 60.868320,19.673576   C60.786461,19.062967 60.704601,18.452356 60.622742,17.841745   C59.313194,17.649912 57.875118,17.011799 56.716888,17.345369   C52.276154,18.624298 47.656715,19.696880 43.597977,21.799891   C35.689953,25.897383 32.616817,32.341030 34.004673,40.835922   C35.231300,48.343952 40.716106,51.879471 47.475071,53.010464   C55.812130,54.405521 64.284927,55.055481 72.720108,55.783680   C88.235725,57.123127 105.329285,69.297966 100.693039,92.854012  M68.936905,25.738256   C62.390038,26.494684 55.756096,26.831902 49.329376,28.166779   C45.551609,28.951450 42.886806,32.372570 43.295162,36.358257   C43.565269,38.994625 45.068710,42.601219 47.145573,43.765339   C55.957577,48.704662 65.638725,46.256218 76.361557,47.139687   C74.877945,45.076332 74.520218,44.040161 74.006378,43.955883   C71.566437,43.555714 69.087128,43.371273 66.615936,43.190918   C61.498810,42.817455 56.308544,42.870251 51.297314,41.942856   C49.608070,41.630245 47.245590,38.904224 47.215317,37.244289   C47.179276,35.268127 48.902657,32.684814 50.633354,31.406727   C52.515549,30.016762 55.254002,29.317848 57.666321,29.186863   C80.993584,27.920223 101.523819,33.755402 116.667793,52.939465   C117.660942,54.197567 119.068100,55.128853 120.810181,56.682636   C120.879158,43.404957 92.800476,27.003517 68.936905,25.738256  M50.198177,111.392426   C34.745819,109.944984 21.295708,102.647942 7.087560,96.721901   C7.551739,98.535812 8.338829,100.023773 9.571196,100.698761   C21.584368,107.278488 34.054462,112.775085 47.780605,114.518532   C60.200428,116.096062 72.425484,115.472458 83.532242,108.773552   C91.139999,104.185043 95.579308,97.434265 96.076172,88.431648   C96.156952,86.967972 95.358620,85.455757 94.966637,83.965981   C94.452316,84.012596 93.938004,84.059204 93.423691,84.105820   C93.149323,85.454445 92.734932,86.791534 92.622818,88.153519   C91.752663,98.724037 85.774529,105.771584 76.070595,108.404518   C68.045952,110.581825 59.433117,110.591286 50.198177,111.392426  M94.715393,79.206161   C94.378479,71.750023 88.206276,64.304855 78.938995,62.189243   C70.889938,60.351738 62.521847,59.817421 54.265282,59.007595   C44.318066,58.031940 35.157970,55.850121 29.809069,46.166336   C29.442169,45.502094 28.303190,45.264309 27.523272,44.828197   C27.145475,47.140652 27.496609,49.020134 28.473516,50.481216   C32.383606,56.329220 38.108646,59.810329 44.884781,60.878635   C53.738884,62.274544 62.716072,62.873993 71.626183,63.934750   C80.576118,65.000237 87.973267,68.322647 91.247002,77.663261   C91.579239,78.611229 93.198547,79.108101 94.715393,79.206161  M90.913704,48.475655   C87.030975,47.112312 83.283546,44.850376 78.478745,47.141010   C87.641823,50.000366 96.944832,53.224236 101.808975,61.560406   C106.498001,69.596481 109.250778,78.762367 112.745926,87.171349   C119.531883,80.779121 106.830956,56.699944 90.913704,48.475655  M92.749138,39.690426   C81.448586,35.181461 69.746513,33.423725 57.641827,34.768581   C56.289055,34.918877 55.030231,35.914753 53.727840,36.518494   C53.835754,37.106617 53.943668,37.694740 54.051579,38.282864   C72.593719,36.799622 90.293121,38.706139 105.715721,50.687260   C103.299706,44.802364 98.354607,42.410690 92.749138,39.690426  M100.880157,28.577238   C103.603386,29.755360 106.326607,30.933481 109.049835,32.111603   C103.478157,22.451546 70.301765,13.515839 63.979607,19.377476   C70.505180,20.343559 76.535446,20.789076 82.323814,22.215925   C88.414597,23.717318 94.274033,26.157192 100.880157,28.577238  M57.594448,122.428093   C56.135094,121.641228 54.760841,120.500908 53.202377,120.125671   C44.053230,117.922844 34.862415,115.892700 25.681744,113.821648   C24.535965,113.563171 23.367147,113.406837 22.209003,113.203171   C21.938271,113.756714 21.667538,114.310249 21.396803,114.863785   C22.985056,115.855881 24.452965,117.257904 26.183338,117.765892   C32.219875,119.538048 38.286682,121.329910 44.461292,122.465660   C48.566170,123.220703 52.874348,122.870453 57.594448,122.428093  M22.595165,77.924812   C26.873440,79.804985 30.461777,83.712502 35.978645,82.322258   C31.026232,78.600761 25.500351,75.881424 20.534454,72.370125   C15.588946,68.873230 11.205443,64.581520 6.575518,60.638309   C6.174779,61.132660 5.774041,61.627014 5.373303,62.121365   C9.139925,69.059654 15.514265,73.343498 22.595165,77.924812  M60.188362,89.187073   C62.050018,88.786652 63.911674,88.386238 65.773331,87.985817   C65.698036,87.487007 65.622734,86.988190 65.547440,86.489372   C56.751961,85.410057 47.956482,84.330734 39.160999,83.251411   C39.061802,83.807358 38.962605,84.363304 38.863407,84.919258   C45.111641,88.544685 52.240734,88.701599 60.188362,89.187073  M14.991696,92.984940   C20.853046,97.289825 27.047815,100.667999 34.633675,100.315933   C28.842842,96.535103 22.668692,93.694733 16.439991,90.979485   C16.123640,90.841583 15.337442,91.781502 14.991696,92.984940  M66.044304,120.543549   C66.134071,121.615410 66.223839,122.687263 66.313606,123.759125   C69.859222,122.757553 74.034508,123.233307 76.667099,120.089569   C76.513924,119.473869 76.360756,118.858170 76.207588,118.242470   C73.051239,118.877640 69.894890,119.512817 66.044304,120.543549  M111.187653,34.091053   C113.264732,36.379459 115.293678,38.715111 117.456825,40.919037   C117.926506,41.397564 118.897118,41.608833 119.598541,41.541653   C119.953827,41.507629 120.469376,40.587318 120.489868,40.051544   C120.589340,37.451077 114.314491,32.920162 111.187653,34.091053  M8.125120,89.382477   C9.080734,89.202690 10.036348,89.022903 10.991963,88.843109   C10.526492,87.911308 10.295654,86.637711 9.544505,86.122078   C8.171851,85.179825 6.491358,84.686035 4.939262,84.005196   C4.644750,84.571968 4.350238,85.138741 4.055726,85.705513   C5.197985,86.782967 6.340244,87.860428 8.125120,89.382477  z"/>
<path fill="#ffffff" opacity="1.000000" stroke="none" d=" M71.531464,1.000000   C72.816078,5.159410 69.519173,3.046038 68.230225,3.191818   C61.318081,3.973576 54.261967,3.867772 47.461796,5.156584   C38.946457,6.770466 31.590464,11.075871 25.992676,17.908663   C11.403031,35.717133 20.677732,61.311836 43.601547,65.836990   C51.895367,67.474190 60.440109,67.811958 68.845863,68.927231   C71.453705,69.273232 74.081703,69.973404 76.527969,70.945518   C88.740234,75.798515 91.414299,90.957886 81.006760,99.069153   C76.745888,102.389923 71.009247,104.913696 65.685753,105.515335   C57.862652,106.399467 49.805538,105.283920 41.855263,104.879807   C40.890469,104.830765 39.969856,103.912460 39.028767,103.397018   C39.072453,102.862839 39.116142,102.328659 39.159828,101.794479   C40.854504,101.794479 42.549854,101.825684 44.243744,101.789223   C52.811844,101.604836 61.426212,101.855789 69.924072,100.980446   C73.246841,100.638176 76.825943,98.309181 79.390594,95.921013   C87.098801,88.743279 84.818832,76.852661 74.725464,74.119057   C65.828949,71.709595 56.413483,71.091805 47.185043,70.059525   C30.326992,68.173820 17.536278,56.299480 15.616592,40.385139   C14.074726,27.602955 21.634321,13.259290 33.361561,7.827852   C38.899384,5.263025 44.903275,3.704502 50.847996,1.345013   C57.687645,1.000000 64.375290,1.000000 71.531464,1.000000  z"/>
<path fill="#ffffff" opacity="1.000000" stroke="none" d=" M65.428467,130.000000   C66.307625,129.219925 67.543129,127.936722 68.933998,127.737335   C83.458733,125.655098 95.462807,119.393898 103.586403,106.858879   C105.727875,103.554504 107.005005,99.700813 108.887009,96.211540   C109.538071,95.004471 110.819511,94.137413 111.813011,93.115036   C111.904297,94.581017 112.454918,96.203041 112.017868,97.489540   C105.643272,116.254028 91.934311,126.011482 72.847198,129.050003   C72.357353,129.127991 71.871056,129.228348 71.191559,129.659134   C69.285645,130.000000 67.571281,130.000000 65.428467,130.000000  z"/>
<path fill="#ffffff" opacity="1.000000" stroke="none" d=" M10.022140,28.028858   C9.837056,32.309578 8.928026,36.705910 9.590012,40.851360   C12.751586,60.649620 26.563517,70.156441 44.410637,74.786087   C51.075867,76.515083 58.250168,76.267059 65.187744,76.966194   C69.377403,77.388405 73.592491,77.946625 75.962578,82.090675   C79.015793,87.429169 76.255997,93.504379 69.602089,95.866074   C61.494877,98.743591 53.128780,98.422226 44.963280,96.541862   C30.283070,93.161278 17.277485,86.255638 6.015688,76.232246   C4.458290,74.846107 3.566138,72.712532 2.366012,70.924988   C2.868151,70.532936 3.370290,70.140892 3.872429,69.748840   C4.960467,70.623322 6.106036,71.435654 7.127821,72.381699   C20.184267,84.470200 35.350716,92.392281 53.099571,94.417892   C58.035583,94.981216 63.427628,94.005798 68.201897,92.467941   C70.506836,91.725494 73.064156,88.181778 73.357475,85.656731   C73.753220,82.249992 70.240814,81.052994 67.035210,80.702087   C58.946430,79.816635 50.679749,79.690056 42.807755,77.864708   C24.488472,73.616852 11.338970,63.105125 6.512363,44.160721   C5.100694,38.619934 4.819877,32.900604 9.662028,28.112988   C10.005919,28.007320 10.022140,28.028858 10.022140,28.028858  z"/>
<path fill="#ffffff" opacity="1.000000" stroke="none" d=" M100.784836,92.456177   C105.329285,69.297966 88.235725,57.123127 72.720108,55.783680   C64.284927,55.055481 55.812130,54.405521 47.475071,53.010464   C40.716106,51.879471 35.231300,48.343952 34.004673,40.835922   C32.616817,32.341030 35.689953,25.897383 43.597977,21.799891   C47.656715,19.696880 52.276154,18.624298 56.716888,17.345369   C57.875118,17.011799 59.313194,17.649912 60.622742,17.841745   C60.704601,18.452356 60.786461,19.062967 60.868320,19.673576   C58.179569,20.433094 55.409676,20.985867 52.821537,22.001720   C49.154713,23.440966 45.113308,24.586971 42.129368,26.978144   C33.927025,33.551067 35.801899,45.538345 45.714737,48.876045   C51.436729,50.802666 57.741604,51.047779 63.806000,51.892796   C69.062050,52.625183 74.498016,52.549610 79.596870,53.845036   C104.294739,60.119835 113.252182,87.135735 97.235069,106.947609   C94.342049,110.526031 90.615990,113.478325 87.021599,116.409538   C86.106293,117.155975 84.222183,116.714424 82.783203,116.818726   C83.541023,115.722633 84.071526,114.305817 85.093056,113.581772   C92.518196,108.318916 98.076622,101.709129 100.784836,92.456177  z"/>
<path fill="#ffffff" opacity="1.000000" stroke="none" d=" M69.381935,25.770025   C92.800476,27.003517 120.879158,43.404957 120.810181,56.682636   C119.068100,55.128853 117.660942,54.197567 116.667793,52.939465   C101.523819,33.755402 80.993584,27.920223 57.666321,29.186863   C55.254002,29.317848 52.515549,30.016762 50.633354,31.406727   C48.902657,32.684814 47.179276,35.268127 47.215317,37.244289   C47.245590,38.904224 49.608070,41.630245 51.297314,41.942856   C56.308544,42.870251 61.498810,42.817455 66.615936,43.190918   C69.087128,43.371273 71.566437,43.555714 74.006378,43.955883   C74.520218,44.040161 74.877945,45.076332 76.361557,47.139687   C65.638725,46.256218 55.957577,48.704662 47.145573,43.765339   C45.068710,42.601219 43.565269,38.994625 43.295162,36.358257   C42.886806,32.372570 45.551609,28.951450 49.329376,28.166779   C55.756096,26.831902 62.390038,26.494684 69.381935,25.770025  z"/>
<path fill="#ffffff" opacity="1.000000" stroke="none" d=" M50.639538,111.476852   C59.433117,110.591286 68.045952,110.581825 76.070595,108.404518   C85.774529,105.771584 91.752663,98.724037 92.622818,88.153519   C92.734932,86.791534 93.149323,85.454445 93.423691,84.105820   C93.938004,84.059204 94.452316,84.012596 94.966637,83.965981   C95.358620,85.455757 96.156952,86.967972 96.076172,88.431648   C95.579308,97.434265 91.139999,104.185043 83.532242,108.773552   C72.425484,115.472458 60.200428,116.096062 47.780605,114.518532   C34.054462,112.775085 21.584368,107.278488 9.571196,100.698761   C8.338829,100.023773 7.551739,98.535812 7.087560,96.721901   C21.295708,102.647942 34.745819,109.944984 50.639538,111.476852  z"/>
<path fill="#ffffff" opacity="1.000000" stroke="none" d=" M108.524620,22.506418   C90.243370,13.152507 71.023949,9.217724 50.643456,13.046499   C43.135372,14.457005 36.150364,17.647202 31.994059,24.385862   C29.829241,27.895706 29.135313,32.329041 27.885517,36.378731   C27.406872,37.929672 27.230679,39.573959 26.916664,41.175713   C26.199108,41.172894 25.481552,41.170074 24.763996,41.167259   C24.598751,38.494156 23.841879,35.697525 24.369797,33.169151   C26.765032,21.697561 34.245605,14.637536 45.046814,10.947788   C56.525875,7.026484 68.316422,7.315809 80.043907,9.401456   C86.061966,10.471725 92.102592,11.977658 97.784615,14.183968   C101.802383,15.744054 105.235420,18.810022 108.884277,21.684788   C108.839050,22.165838 108.524620,22.506418 108.524620,22.506418  z"/>
<path fill="#ffffff" opacity="1.000000" stroke="none" d=" M94.467987,79.510239   C93.198547,79.108101 91.579239,78.611229 91.247002,77.663261   C87.973267,68.322647 80.576118,65.000237 71.626183,63.934750   C62.716072,62.873993 53.738884,62.274544 44.884781,60.878635   C38.108646,59.810329 32.383606,56.329220 28.473516,50.481216   C27.496609,49.020134 27.145475,47.140652 27.523272,44.828197   C28.303190,45.264309 29.442169,45.502094 29.809069,46.166336   C35.157970,55.850121 44.318066,58.031940 54.265282,59.007595   C62.521847,59.817421 70.889938,60.351738 78.938995,62.189243   C88.206276,64.304855 94.378479,71.750023 94.467987,79.510239  z"/>
<path fill="#ffffff" opacity="1.000000" stroke="none" d=" M91.248856,48.647709   C106.830956,56.699944 119.531883,80.779121 112.745926,87.171349   C109.250778,78.762367 106.498001,69.596481 101.808975,61.560406   C96.944832,53.224236 87.641823,50.000366 78.478745,47.141010   C83.283546,44.850376 87.030975,47.112312 91.248856,48.647709  z"/>
<path fill="#ffffff" opacity="1.000000" stroke="none" d=" M93.106598,39.822807   C98.354607,42.410690 103.299706,44.802364 105.715721,50.687260   C90.293121,38.706139 72.593719,36.799622 54.051579,38.282864   C53.943668,37.694740 53.835754,37.106617 53.727840,36.518494   C55.030231,35.914753 56.289055,34.918877 57.641827,34.768581   C69.746513,33.423725 81.448586,35.181461 93.106598,39.822807  z"/>
<path fill="#ffffff" opacity="1.000000" stroke="none" d=" M100.557358,28.382118   C94.274033,26.157192 88.414597,23.717318 82.323814,22.215925   C76.535446,20.789076 70.505180,20.343559 63.979607,19.377476   C70.301765,13.515839 103.478157,22.451546 109.049835,32.111603   C106.326607,30.933481 103.603386,29.755360 100.557358,28.382118  z"/>
<path fill="#ffffff" opacity="1.000000" stroke="none" d=" M57.342987,122.721512   C52.874348,122.870453 48.566170,123.220703 44.461292,122.465660   C38.286682,121.329910 32.219875,119.538048 26.183338,117.765892   C24.452965,117.257904 22.985056,115.855881 21.396803,114.863785   C21.667538,114.310249 21.938271,113.756714 22.209003,113.203171   C23.367147,113.406837 24.535965,113.563171 25.681744,113.821648   C34.862415,115.892700 44.053230,117.922844 53.202377,120.125671   C54.760841,120.500908 56.135094,121.641228 57.342987,122.721512  z"/>
<path fill="#ffffff" opacity="1.000000" stroke="none" d=" M22.289232,77.727882   C15.514265,73.343498 9.139925,69.059654 5.373303,62.121365   C5.774041,61.627014 6.174779,61.132660 6.575518,60.638309   C11.205443,64.581520 15.588946,68.873230 20.534454,72.370125   C25.500351,75.881424 31.026232,78.600761 35.978645,82.322258   C30.461777,83.712502 26.873440,79.804985 22.289232,77.727882  z"/>
<path fill="#ffffff" opacity="1.000000" stroke="none" d=" M59.737541,89.186417   C52.240734,88.701599 45.111641,88.544685 38.863407,84.919258   C38.962605,84.363304 39.061802,83.807358 39.160999,83.251411   C47.956482,84.330734 56.751961,85.410057 65.547440,86.489372   C65.622734,86.988190 65.698036,87.487007 65.773331,87.985817   C63.911674,88.386238 62.050018,88.786652 59.737541,89.186417  z"/>
<path fill="#fafafa" opacity="1.000000" stroke="none" d=" M14.880852,92.602264   C15.337442,91.781502 16.123640,90.841583 16.439991,90.979485   C22.668692,93.694733 28.842842,96.535103 34.633675,100.315933   C27.047815,100.667999 20.853046,97.289825 14.880852,92.602264  z"/>
<path fill="#f9feff" opacity="1.000000" stroke="none" d=" M66.391418,120.345772   C69.894890,119.512817 73.051239,118.877640 76.207588,118.242470   C76.360756,118.858170 76.513924,119.473869 76.667099,120.089569   C74.034508,123.233307 69.859222,122.757553 66.313606,123.759125   C66.223839,122.687263 66.134071,121.615410 66.391418,120.345772  z"/>
<path fill="#ffffff" opacity="1.000000" stroke="none" d=" M111.248764,33.717030   C114.314491,32.920162 120.589340,37.451077 120.489868,40.051544   C120.469376,40.587318 119.953827,41.507629 119.598541,41.541653   C118.897118,41.608833 117.926506,41.397564 117.456825,40.919037   C115.293678,38.715111 113.264732,36.379459 111.248764,33.717030  z"/>
<path fill="#ffffff" opacity="1.000000" stroke="none" d=" M7.803812,89.160179   C6.340244,87.860428 5.197985,86.782967 4.055726,85.705513   C4.350238,85.138741 4.644750,84.571968 4.939262,84.005196   C6.491358,84.686035 8.171851,85.179825 9.544505,86.122078   C10.295654,86.637711 10.526492,87.911308 10.991962,88.843109   C10.036348,89.022903 9.080734,89.202690 7.803812,89.160179  z"/>
<path fill="#ffffff" opacity="1.000000" stroke="none" d=" M10.001091,28.001556   C10.121146,27.781525 10.246031,27.567255 10.370914,27.352983   C10.420632,27.637705 10.470349,27.922424 10.271103,28.118002   C10.022140,28.028858 10.005919,28.007320 10.001091,28.001556  z"/>
<path fill="#ffffff" opacity="1.000000" stroke="none" d=" M109.003510,22.002537   C109.363441,22.147917 109.558907,22.456600 109.754364,22.765282   C109.490234,22.800856 109.226112,22.836428 108.743301,22.689209   C108.524620,22.506418 108.839050,22.165838 109.003510,22.002537  z"/>
</svg>